<svg xmlns="http://www.w3.org/2000/svg" viewBox="0 0 256 256" role="img" aria-labelledby="title"><title id="title">Warlock</title><rect width="256" height="256" rx="52" fill="#10111A"/><g transform="translate(18 38) scale(.9167)"><polygon points="12,24 44,24 44,76" fill="#F5F0E8"/>
<polygon points="44,24 91,108 44,76" fill="#F0BE75"/>
<polygon points="44,76 91,108 78,164" fill="#B7A2FF"/>
<polygon points="78,164 101,88 101,145" fill="#F5F0E8"/>
<polygon points="101,88 120,128 101,145" fill="#79758F"/>
<polygon points="149,108 196,24 196,76" fill="#F5F0E8"/>
<polygon points="196,24 228,24 196,76" fill="#B7A2FF"/>
<polygon points="149,108 196,76 162,164" fill="#79758F"/>
<polygon points="162,164 139,88 139,145" fill="#F0BE75"/>
<polygon points="139,88 120,128 139,145" fill="#79758F"/>
<polygon points="121,57 121,99 108,78" fill="#F6DEA9"/>
<polygon points="121,57 134,78 121,99" fill="#F0BE75"/></g></svg>
